<svg xmlns="http://www.w3.org/2000/svg" version="1.1" xmlns:xlink="http://www.w3.org/1999/xlink" xmlns:svgjs="http://svgjs.com/svgjs" width="40" height="30"><svg xmlns="http://www.w3.org/2000/svg" xmlns:xlink="http://www.w3.org/1999/xlink" viewBox="-10 -10.5 40 30" version="1.1">
<title>Bass Key old style</title>
<g transform="scale(10, 10)">
<path fill="#fff" stroke-width="0.001" d="M-0.1 .35 C-0.1 1.11 .48 1.8 1.25 1.8 C1.75 1.8 2.2 1.6 2.5 1.05 C2.55 .95 2.5 .9 2.43 .95 C2.2 1.17 1.9 1.48 1.45 1.48 C0.7 1.48 .15 .85 .15 .15 C0.15-0.45 .62-0.83 1.05-0.83 C1.55-0.83 1.9-0.5 1.9-0.05 C1.9 .35 1.55 .71 1.2 .71 C0.8 .71 .6 .4 .63 .17 C0.75 .3 .9 .31 1.0 .31 C1.2 .31 1.38 .1 1.38-0.15 C1.38-0.35 1.2-0.55 .95-0.55 C0.6-0.52 .39-0.25 .39 .05 C0.39 .52 .62 .89 1.2 .89 C1.65 .89 2.07 .5 2.07-0.1 C2.07-0.66 1.56-1.01 1.05-1.01 C0.28-1.01-0.1-0.35-0.1 .35M2.42-0.2 C2.54-0.2 2.64-0.3 2.64-0.42 C2.64-0.54 2.54-0.64 2.42-0.64 C2.3-0.64 2.2-0.54 2.2-0.42 C2.2-0.3 2.3-0.2 2.42-0.2M2.42 .2 C2.54 .2 2.64 .3 2.64 .42 C2.64 .54 2.54 .64 2.42 .64 C2.3 .64 2.2 .54 2.2 .42 C2.2 .3 2.3 .2 2.42 .2z"></path>
</g>
</svg><style>@media (prefers-color-scheme: light) { :root { filter: none; } }
</style></svg>